<?xml version="1.0" encoding="UTF-8" standalone="no"?>
<svg width="1480px" height="356px" viewBox="0 0 1480 356" version="1.1" xmlns="http://www.w3.org/2000/svg" xmlns:xlink="http://www.w3.org/1999/xlink" xmlns:sketch="http://www.bohemiancoding.com/sketch/ns">
    <!-- Generator: Sketch 3.3 (11970) - http://www.bohemiancoding.com/sketch -->
    <title>Artboard 1</title>
    <desc>Created with Sketch.</desc>
    <defs></defs>
    <g id="Page-1" stroke="none" stroke-width="1" fill="none" fill-rule="evenodd" sketch:type="MSPage">
        <g id="Artboard-1" sketch:type="MSArtboardGroup">
            <g id="BACKGROUND" sketch:type="MSLayerGroup" transform="translate(-1.000000, -17.000000)">
                <g id="Rectangle-179-+-Line-+-Line-Copy-39" transform="translate(1.000000, 16.000000)" sketch:type="MSShapeGroup">
                    <rect id="Rectangle-179" fill="#FFF8F0" x="0.535196687" y="0.301886792" width="1479.92961" height="361.698113"></rect>
                    <path d="M1.30279503,201.365927 C1.30279503,201.365927 98.9758656,204.7106 150.86513,203.443468 C201.066445,202.217555 307.574534,193.886792 307.574534,193.886792" id="Line" stroke="#C8C8C8" stroke-linecap="square"></path>
                    <path d="M1.30279503,196.271588 C1.30279503,196.271588 50.8957788,199.21544 109.240505,198.995607 C135.148271,198.897991 176.635801,196.075523 192.591828,195.685878 C242.793143,194.459965 299.284347,192.287889 299.284347,192.287889" id="Line-Copy-39" stroke="#C8C8C8" stroke-linecap="square"></path>
                </g>
                <g id="Group" transform="translate(0.000000, 167.094340)" stroke="#C8C8C8" stroke-linecap="square" sketch:type="MSShapeGroup">
                    <path d="M0.767598344,8.66037736 C0.767598344,8.66037736 247.072137,-8.01658753 556.277301,5.09345376 C672.025899,10.0010978 728.171009,17.6106105 982.528982,10.0331017 C1236.88695,2.45559297 1482.2324,8.66037736 1482.2324,8.66037736" id="Line-Copy-5"></path>
                    <path d="M-9.3742589e-16,15.7257398 C-9.3742589e-16,15.7257398 246.304538,-0.951225088 555.509703,12.1588162 C671.2583,17.0664603 727.403411,24.6759729 981.761383,17.0984642 C1236.11936,9.52095542 1481.4648,15.7257398 1481.4648,15.7257398" id="Line-Copy-23"></path>
                    <path d="M1.53519669,22.8578153 C1.53519669,22.8578153 247.839735,6.18085038 557.0449,19.2908917 C672.793497,24.1985357 728.938607,31.8080484 983.29658,24.2305396 C1237.65455,16.6530309 1483,22.8578153 1483,22.8578153" id="Line-Copy-24"></path>
                    <path d="M-9.3742589e-16,29.9898907 C-9.3742589e-16,29.9898907 246.304538,13.3129259 555.509703,26.4229671 C671.2583,31.3306112 727.403411,38.9401239 981.761383,31.3626151 C1236.11936,23.7851064 1481.4648,29.9898907 1481.4648,29.9898907" id="Line-Copy-25"></path>
                    <path d="M-9.3742589e-16,38.1408341 C-9.3742589e-16,38.1408341 246.304538,21.4638693 555.509703,34.5739105 C671.2583,39.4815546 727.403411,47.0910673 981.761383,39.5135585 C1236.11936,31.9360498 1481.4648,38.1408341 1481.4648,38.1408341" id="Line-Copy-26"></path>
                    <path d="M-9.3742589e-16,45.2729096 C-9.3742589e-16,45.2729096 246.304538,28.5959447 555.509703,41.705986 C671.2583,46.6136301 727.403411,54.2231427 981.761383,46.645634 C1236.11936,39.0681252 1481.4648,45.2729096 1481.4648,45.2729096" id="Line-Copy-27"></path>
                    <path d="M-9.3742589e-16,53.423853 C-9.3742589e-16,53.423853 171.795862,64.7023267 235.130692,52.9210727 C298.465522,41.1398186 477.931798,46.5676909 555.509703,49.8569294 C671.2583,54.7645735 727.403411,62.3740861 981.761383,54.7965774 C1236.11936,47.2190686 1481.4648,53.423853 1481.4648,53.423853" id="Line-Copy-28"></path>
                    <path d="M-9.3742589e-16,59.5370606 C-9.3742589e-16,59.5370606 171.795862,70.8155343 235.130692,59.0342802 C298.465522,47.2530261 477.931798,52.6808985 555.509703,55.970137 C671.2583,60.877781 727.403411,68.4872937 981.761383,60.9097849 C1236.11936,53.3322762 1481.4648,59.5370606 1481.4648,59.5370606" id="Line-Copy-29"></path>
                    <path d="M-9.3742589e-16,65.6502681 C-9.3742589e-16,65.6502681 171.795862,76.9287418 235.130692,65.1474878 C298.465522,53.3662337 477.931798,58.794106 555.509703,62.0833445 C671.2583,66.9909886 727.403411,74.6005012 981.761383,67.0229925 C1236.11936,59.4454837 1481.4648,65.6502681 1481.4648,65.6502681" id="Line-Copy-30"></path>
                    <path d="M-9.3742589e-16,71.7634757 C-9.3742589e-16,71.7634757 171.795862,83.0419494 235.130692,71.2606953 C298.465522,59.4794412 477.931798,64.9073135 555.509703,68.1965521 C671.2583,73.1041961 727.403411,80.7137088 981.761383,73.1362 C1236.11936,65.5586913 1481.4648,71.7634757 1481.4648,71.7634757" id="Line-Copy-31"></path>
                    <path d="M-9.3742589e-16,77.8766832 C-9.3742589e-16,77.8766832 171.795862,89.1551569 235.130692,77.3739029 C298.465522,65.5926488 477.931798,71.0205211 555.509703,74.3097596 C671.2583,79.2174037 727.403411,86.8269163 981.761383,79.2494076 C1236.11936,71.6718988 1481.4648,77.8766832 1481.4648,77.8766832" id="Line-Copy-32"></path>
                    <path d="M-9.3742589e-16,82.9710228 C-9.3742589e-16,82.9710228 171.795862,94.2494965 235.130692,82.4682425 C298.465522,70.6869884 477.931798,76.1148607 555.509703,79.4040992 C671.2583,84.3117433 727.403411,91.9212559 981.761383,84.3437472 C1236.11936,76.7662384 1481.4648,82.9710228 1481.4648,82.9710228" id="Line-Copy-33"></path>
                    <path d="M-9.3742589e-16,88.0653624 C-9.3742589e-16,88.0653624 171.795862,99.3438362 235.130692,87.5625821 C298.465522,75.781328 477.931798,81.2092003 555.509703,84.4984388 C671.2583,89.4060829 727.403411,97.0155956 981.761383,89.4380868 C1236.11936,81.8605781 1481.4648,88.0653624 1481.4648,88.0653624" id="Line-Copy-34"></path>
                    <path d="M-9.3742589e-16,95.1974379 C-9.3742589e-16,95.1974379 171.795862,106.475912 235.130692,94.6946576 C298.465522,82.9134035 477.931798,88.3412758 555.509703,91.6305143 C671.2583,96.5381584 727.403411,104.147671 981.761383,96.5701623 C1236.11936,88.9926535 1481.4648,95.1974379 1481.4648,95.1974379" id="Line-Copy-35"></path>
                    <path d="M-9.3742589e-16,101.310645 C-9.3742589e-16,101.310645 171.795862,112.589119 235.130692,100.807865 C298.465522,89.026611 477.931798,94.4544834 555.509703,97.7437219 C671.2583,102.651366 727.403411,110.260879 981.761383,102.68337 C1236.11936,95.1058611 1481.4648,101.310645 1481.4648,101.310645" id="Line-Copy-36"></path>
                    <path d="M-9.3742589e-16,108.442721 C-9.3742589e-16,108.442721 171.795862,119.721195 235.130692,107.939941 C298.465522,96.1586865 477.931798,101.586559 555.509703,104.875797 C671.2583,109.783441 727.403411,117.392954 981.761383,109.815445 C1236.11936,102.237937 1481.4648,108.442721 1481.4648,108.442721" id="Line-Copy-37"></path>
                </g>
                <g id="bottom1-+-bottom1-copy-+-bottom1-+-bottom1-copy-2-+-bottom1-+-bottom1-copy-+-bottom1-+-bottom1-copy-2-copy" transform="translate(0.000000, 273.000000)" stroke-linecap="square" stroke="#C8C8C8" sketch:type="MSShapeGroup">
                    <g id="bottom1-+-bottom1-copy-+-bottom1-+-bottom1-copy-2">
                        <g id="bottom1-+-bottom1-copy">
                            <g id="bottom1">
                                <path d="M-9.3742589e-16,8.6502681 C-9.3742589e-16,8.6502681 171.795862,19.9287418 235.130692,8.14748776 C298.465522,-3.63376631 477.931798,1.794106 555.509703,5.0833445 C671.2583,9.99098858 727.403411,17.6005012 981.761383,10.0229925 C1236.11936,2.44548372 1481.4648,8.6502681 1481.4648,8.6502681" id="Line-Copy-38"></path>
                                <path d="M-9.3742589e-16,12.6502681 C-9.3742589e-16,12.6502681 171.795862,23.9287418 235.130692,12.1474878 C298.465522,0.36623369 477.931798,5.794106 555.509703,9.0833445 C671.2583,13.9909886 727.403411,21.6005012 981.761383,14.0229925 C1236.11936,6.44548372 1481.4648,12.6502681 1481.4648,12.6502681" id="Line-Copy-42"></path>
                            </g>
                            <g id="bottom1-copy" transform="translate(0.000000, 8.000000)">
                                <path d="M-9.3742589e-16,8.6502681 C-9.3742589e-16,8.6502681 171.795862,19.9287418 235.130692,8.14748776 C298.465522,-3.63376631 477.931798,1.794106 555.509703,5.0833445 C671.2583,9.99098858 727.403411,17.6005012 981.761383,10.0229925 C1236.11936,2.44548372 1481.4648,8.6502681 1481.4648,8.6502681" id="Line-Copy-38"></path>
                                <path d="M-9.3742589e-16,12.6502681 C-9.3742589e-16,12.6502681 171.795862,23.9287418 235.130692,12.1474878 C298.465522,0.36623369 477.931798,5.794106 555.509703,9.0833445 C671.2583,13.9909886 727.403411,21.6005012 981.761383,14.0229925 C1236.11936,6.44548372 1481.4648,12.6502681 1481.4648,12.6502681" id="Line-Copy-42"></path>
                            </g>
                        </g>
                        <g id="bottom1-+-bottom1-copy-2" transform="translate(0.000000, 16.000000)">
                            <g id="bottom1">
                                <path d="M-9.3742589e-16,8.6502681 C-9.3742589e-16,8.6502681 171.795862,19.9287418 235.130692,8.14748776 C298.465522,-3.63376631 477.931798,1.794106 555.509703,5.0833445 C671.2583,9.99098858 727.403411,17.6005012 981.761383,10.0229925 C1236.11936,2.44548372 1481.4648,8.6502681 1481.4648,8.6502681" id="Line-Copy-38"></path>
                                <path d="M-9.3742589e-16,12.6502681 C-9.3742589e-16,12.6502681 171.795862,23.9287418 235.130692,12.1474878 C298.465522,0.36623369 477.931798,5.794106 555.509703,9.0833445 C671.2583,13.9909886 727.403411,21.6005012 981.761383,14.0229925 C1236.11936,6.44548372 1481.4648,12.6502681 1481.4648,12.6502681" id="Line-Copy-42"></path>
                            </g>
                            <g id="bottom1-copy" transform="translate(0.000000, 8.000000)">
                                <path d="M-9.3742589e-16,8.6502681 C-9.3742589e-16,8.6502681 171.795862,19.9287418 235.130692,8.14748776 C298.465522,-3.63376631 477.931798,1.794106 555.509703,5.0833445 C671.2583,9.99098858 727.403411,17.6005012 981.761383,10.0229925 C1236.11936,2.44548372 1481.4648,8.6502681 1481.4648,8.6502681" id="Line-Copy-38"></path>
                                <path d="M-9.3742589e-16,12.6502681 C-9.3742589e-16,12.6502681 171.795862,23.9287418 235.130692,12.1474878 C298.465522,0.36623369 477.931798,5.794106 555.509703,9.0833445 C671.2583,13.9909886 727.403411,21.6005012 981.761383,14.0229925 C1236.11936,6.44548372 1481.4648,12.6502681 1481.4648,12.6502681" id="Line-Copy-42"></path>
                            </g>
                        </g>
                    </g>
                    <g id="bottom1-+-bottom1-copy-+-bottom1-+-bottom1-copy-2-copy" transform="translate(0.000000, 31.000000)">
                        <g id="bottom1-+-bottom1-copy">
                            <g id="bottom1">
                                <path d="M-9.3742589e-16,8.6502681 C-9.3742589e-16,8.6502681 171.795862,19.9287418 235.130692,8.14748776 C298.465522,-3.63376631 477.931798,1.794106 555.509703,5.0833445 C671.2583,9.99098858 727.403411,17.6005012 981.761383,10.0229925 C1236.11936,2.44548372 1481.4648,8.6502681 1481.4648,8.6502681" id="Line-Copy-38"></path>
                                <path d="M-9.3742589e-16,12.6502681 C-9.3742589e-16,12.6502681 171.795862,23.9287418 235.130692,12.1474878 C298.465522,0.36623369 477.931798,5.794106 555.509703,9.0833445 C671.2583,13.9909886 727.403411,21.6005012 981.761383,14.0229925 C1236.11936,6.44548372 1481.4648,12.6502681 1481.4648,12.6502681" id="Line-Copy-42"></path>
                            </g>
                            <g id="bottom1-copy" transform="translate(0.000000, 8.000000)">
                                <path d="M-9.3742589e-16,8.6502681 C-9.3742589e-16,8.6502681 171.795862,19.9287418 235.130692,8.14748776 C298.465522,-3.63376631 477.931798,1.794106 555.509703,5.0833445 C671.2583,9.99098858 727.403411,17.6005012 981.761383,10.0229925 C1236.11936,2.44548372 1481.4648,8.6502681 1481.4648,8.6502681" id="Line-Copy-38"></path>
                                <path d="M-9.3742589e-16,12.6502681 C-9.3742589e-16,12.6502681 171.795862,23.9287418 235.130692,12.1474878 C298.465522,0.36623369 477.931798,5.794106 555.509703,9.0833445 C671.2583,13.9909886 727.403411,21.6005012 981.761383,14.0229925 C1236.11936,6.44548372 1481.4648,12.6502681 1481.4648,12.6502681" id="Line-Copy-42"></path>
                            </g>
                        </g>
                        <g id="bottom1-+-bottom1-copy-2" transform="translate(0.000000, 16.000000)">
                            <g id="bottom1">
                                <path d="M-9.3742589e-16,8.6502681 C-9.3742589e-16,8.6502681 171.795862,19.9287418 235.130692,8.14748776 C298.465522,-3.63376631 477.931798,1.794106 555.509703,5.0833445 C671.2583,9.99098858 727.403411,17.6005012 981.761383,10.0229925 C1236.11936,2.44548372 1481.4648,8.6502681 1481.4648,8.6502681" id="Line-Copy-38"></path>
                                <path d="M-9.3742589e-16,12.6502681 C-9.3742589e-16,12.6502681 171.795862,23.9287418 235.130692,12.1474878 C298.465522,0.36623369 477.931798,5.794106 555.509703,9.0833445 C671.2583,13.9909886 727.403411,21.6005012 981.761383,14.0229925 C1236.11936,6.44548372 1481.4648,12.6502681 1481.4648,12.6502681" id="Line-Copy-42"></path>
                            </g>
                            <g id="bottom1-copy" transform="translate(0.000000, 8.000000)">
                                <path d="M-9.3742589e-16,8.6502681 C-9.3742589e-16,8.6502681 171.795862,19.9287418 235.130692,8.14748776 C298.465522,-3.63376631 477.931798,1.794106 555.509703,5.0833445 C671.2583,9.99098858 727.403411,17.6005012 981.761383,10.0229925 C1236.11936,2.44548372 1481.4648,8.6502681 1481.4648,8.6502681" id="Line-Copy-38"></path>
                                <path d="M-9.3742589e-16,12.6502681 C-9.3742589e-16,12.6502681 171.795862,23.9287418 235.130692,12.1474878 C298.465522,0.36623369 477.931798,5.794106 555.509703,9.0833445 C671.2583,13.9909886 727.403411,21.6005012 981.761383,14.0229925 C1236.11936,6.44548372 1481.4648,12.6502681 1481.4648,12.6502681" id="Line-Copy-42"></path>
                            </g>
                        </g>
                    </g>
                </g>
                <g id="bottom1-+-bottom1-copy-+-bottom1-+-bottom1-copy-2-+-bottom1-+-bottom1-copy-+-bottom1-+-bottom1-copy-2-copy-copy" transform="translate(0.000000, 337.000000)" stroke-linecap="square" stroke="#C8C8C8" sketch:type="MSShapeGroup">
                    <g id="bottom1-+-bottom1-copy-+-bottom1-+-bottom1-copy-2">
                        <g id="bottom1-+-bottom1-copy">
                            <g id="bottom1">
                                <path d="M-9.3742589e-16,8.6502681 C-9.3742589e-16,8.6502681 171.795862,19.9287418 235.130692,8.14748776 C298.465522,-3.63376631 477.931798,1.794106 555.509703,5.0833445 C671.2583,9.99098858 727.403411,17.6005012 981.761383,10.0229925 C1236.11936,2.44548372 1481.4648,8.6502681 1481.4648,8.6502681" id="Line-Copy-38"></path>
                                <path d="M-9.3742589e-16,12.6502681 C-9.3742589e-16,12.6502681 171.795862,23.9287418 235.130692,12.1474878 C298.465522,0.36623369 477.931798,5.794106 555.509703,9.0833445 C671.2583,13.9909886 727.403411,21.6005012 981.761383,14.0229925 C1236.11936,6.44548372 1481.4648,12.6502681 1481.4648,12.6502681" id="Line-Copy-42"></path>
                            </g>
                            <g id="bottom1-copy" transform="translate(0.000000, 8.000000)">
                                <path d="M-9.3742589e-16,8.6502681 C-9.3742589e-16,8.6502681 171.795862,19.9287418 235.130692,8.14748776 C298.465522,-3.63376631 477.931798,1.794106 555.509703,5.0833445 C671.2583,9.99098858 727.403411,17.6005012 981.761383,10.0229925 C1236.11936,2.44548372 1481.4648,8.6502681 1481.4648,8.6502681" id="Line-Copy-38"></path>
                                <path d="M-9.3742589e-16,12.6502681 C-9.3742589e-16,12.6502681 171.795862,23.9287418 235.130692,12.1474878 C298.465522,0.36623369 477.931798,5.794106 555.509703,9.0833445 C671.2583,13.9909886 727.403411,21.6005012 981.761383,14.0229925 C1236.11936,6.44548372 1481.4648,12.6502681 1481.4648,12.6502681" id="Line-Copy-42"></path>
                            </g>
                        </g>
                        <g id="bottom1-+-bottom1-copy-2" transform="translate(0.000000, 16.000000)">
                            <g id="bottom1">
                                <path d="M-9.3742589e-16,8.6502681 C-9.3742589e-16,8.6502681 171.795862,19.9287418 235.130692,8.14748776 C298.465522,-3.63376631 477.931798,1.794106 555.509703,5.0833445 C671.2583,9.99098858 727.403411,17.6005012 981.761383,10.0229925 C1236.11936,2.44548372 1481.4648,8.6502681 1481.4648,8.6502681" id="Line-Copy-38"></path>
                                <path d="M-9.3742589e-16,12.6502681 C-9.3742589e-16,12.6502681 171.795862,23.9287418 235.130692,12.1474878 C298.465522,0.36623369 477.931798,5.794106 555.509703,9.0833445 C671.2583,13.9909886 727.403411,21.6005012 981.761383,14.0229925 C1236.11936,6.44548372 1481.4648,12.6502681 1481.4648,12.6502681" id="Line-Copy-42"></path>
                            </g>
                            <g id="bottom1-copy" transform="translate(0.000000, 8.000000)">
                                <path d="M-9.3742589e-16,8.6502681 C-9.3742589e-16,8.6502681 171.795862,19.9287418 235.130692,8.14748776 C298.465522,-3.63376631 477.931798,1.794106 555.509703,5.0833445 C671.2583,9.99098858 727.403411,17.6005012 981.761383,10.0229925 C1236.11936,2.44548372 1481.4648,8.6502681 1481.4648,8.6502681" id="Line-Copy-38"></path>
                                <path d="M-9.3742589e-16,12.6502681 C-9.3742589e-16,12.6502681 171.795862,23.9287418 235.130692,12.1474878 C298.465522,0.36623369 477.931798,5.794106 555.509703,9.0833445 C671.2583,13.9909886 727.403411,21.6005012 981.761383,14.0229925 C1236.11936,6.44548372 1481.4648,12.6502681 1481.4648,12.6502681" id="Line-Copy-42"></path>
                            </g>
                        </g>
                    </g>
                    <g id="bottom1-+-bottom1-copy-+-bottom1-+-bottom1-copy-2-copy" transform="translate(0.000000, 31.000000)">
                        <g id="bottom1-+-bottom1-copy">
                            <g id="bottom1">
                                <path d="M-9.3742589e-16,8.6502681 C-9.3742589e-16,8.6502681 171.795862,19.9287418 235.130692,8.14748776 C298.465522,-3.63376631 477.931798,1.794106 555.509703,5.0833445 C671.2583,9.99098858 727.403411,17.6005012 981.761383,10.0229925 C1236.11936,2.44548372 1481.4648,8.6502681 1481.4648,8.6502681" id="Line-Copy-38"></path>
                                <path d="M-9.3742589e-16,12.6502681 C-9.3742589e-16,12.6502681 171.795862,23.9287418 235.130692,12.1474878 C298.465522,0.36623369 477.931798,5.794106 555.509703,9.0833445 C671.2583,13.9909886 727.403411,21.6005012 981.761383,14.0229925 C1236.11936,6.44548372 1481.4648,12.6502681 1481.4648,12.6502681" id="Line-Copy-42"></path>
                            </g>
                        </g>
                    </g>
                </g>
                <g id="Group" stroke="#C8C8C8" stroke-linecap="square" sketch:type="MSShapeGroup">
                    <path d="M0.767598344,139.075472 C0.767598344,139.075472 247.072137,122.398507 556.277301,135.508548 C672.025899,140.416192 728.171009,148.025705 982.528982,140.448196 C1236.88695,132.870687 1482.2324,139.075472 1482.2324,139.075472" id="Line"></path>
                    <path d="M0.767598344,144.169811 C0.767598344,144.169811 247.072137,127.492846 556.277301,140.602888 C672.025899,145.510532 728.171009,153.120044 982.528982,145.542536 C1236.88695,137.965027 1482.2324,144.169811 1482.2324,144.169811" id="Line-Copy"></path>
                    <path d="M0.767598344,150.283019 C0.767598344,150.283019 247.072137,133.606054 556.277301,146.716095 C672.025899,151.623739 728.171009,159.233252 982.528982,151.655743 C1236.88695,144.078234 1482.2324,150.283019 1482.2324,150.283019" id="Line-Copy-2"></path>
                    <path d="M0.767598344,157.415094 C0.767598344,157.415094 247.072137,140.738129 556.277301,153.848171 C672.025899,158.755815 728.171009,166.365327 982.528982,158.787819 C1236.88695,151.21031 1482.2324,157.415094 1482.2324,157.415094" id="Line-Copy-3"></path>
                    <path d="M-9.3742589e-16,166.518193 C-9.3742589e-16,166.518193 246.304538,149.841228 555.509703,162.951269 C671.2583,167.858913 727.403411,175.468426 981.761383,167.890917 C1236.11936,160.313408 1481.4648,166.518193 1481.4648,166.518193" id="Line-Copy-4"></path>
                    <path d="M0.767598344,130.924528 C0.767598344,130.924528 247.072137,114.247563 556.277301,127.357605 C672.025899,132.265249 885.080912,144.983993 1140.12728,126.02841 C1395.17364,107.072827 1475.44225,118.294505 1475.44225,118.294505" id="Line-Copy-6"></path>
                    <path d="M0.767598344,124.811321 C0.767598344,124.811321 247.072137,108.134356 556.277301,121.244397 C672.025899,126.152041 885.080912,138.870785 1140.12728,119.915202 C1395.17364,100.959619 1475.44225,112.181298 1475.44225,112.181298" id="Line-Copy-7"></path>
                    <path d="M0.767598344,117.679245 C0.767598344,117.679245 247.072137,101.00228 556.277301,114.112322 C672.025899,119.019966 885.080912,131.73871 1140.12728,112.783127 C1395.17364,93.8275439 1475.44225,105.049222 1475.44225,105.049222" id="Line-Copy-8"></path>
                    <path d="M0.767598344,111.566038 C0.767598344,111.566038 247.072137,94.8890728 556.277301,107.999114 C672.025899,112.906758 885.080912,125.625502 1140.12728,106.669919 C1395.17364,87.7143363 1475.44225,98.9360147 1475.44225,98.9360147" id="Line-Copy-9"></path>
                    <path d="M0.767598344,104.433962 C0.767598344,104.433962 247.072137,87.7569974 556.277301,100.867039 C672.025899,105.774683 885.080912,118.493427 1140.12728,99.5378438 C1395.17364,80.5822609 1475.44225,91.8039392 1475.44225,91.8039392" id="Line-Copy-10"></path>
                    <path d="M0.767598344,98.3207547 C0.767598344,98.3207547 247.072137,81.6437898 556.277301,94.7538311 C672.025899,99.6614752 885.080912,112.380219 1140.12728,93.4246362 C1395.17364,74.4690533 1475.44225,85.6907317 1475.44225,85.6907317" id="Line-Copy-11"></path>
                    <path d="M0.767598344,90.1698113 C0.767598344,90.1698113 -6.20489579,86.335956 53.2593783,84.0983561 C72.61679,83.3699499 135.967051,77.8456712 160.272437,77.2230319 C179.858831,76.7212806 201.11353,82.5823958 223.52329,82.2480776 C315.968336,80.8689435 430.956544,81.289392 556.277301,86.6028877 C672.025899,91.5105318 885.080912,104.229276 1140.12728,85.2736929 C1237.25855,78.0546918 1309.04052,75.2125214 1360.69347,74.4604822 C1444.67032,73.2378241 1475.44225,77.5397883 1475.44225,77.5397883" id="Line-Copy-12"></path>
                    <path d="M0.767598344,83.0377358 C0.767598344,83.0377358 -6.20489579,79.2038805 53.2593783,76.9662806 C72.61679,76.2378744 135.967051,70.7135957 160.272437,70.0909564 C179.858831,69.5892051 201.11353,75.4503203 223.52329,75.1160021 C315.968336,73.736868 430.956544,74.1573166 556.277301,79.4708122 C672.025899,84.3784563 885.080912,97.0972003 1140.12728,78.1416174 C1237.25855,70.9226163 1309.04052,68.0804459 1360.69347,67.3284067 C1444.67032,66.1057486 1475.44225,70.4077128 1475.44225,70.4077128" id="Line-Copy-13"></path>
                    <path d="M0.767598344,76.9245283 C0.767598344,76.9245283 -6.20489579,73.090673 53.2593783,70.8530731 C72.61679,70.1246669 135.967051,64.6003882 160.272437,63.9777488 C179.858831,63.4759975 201.11353,69.3371128 223.52329,69.0027946 C315.968336,67.6236605 430.956544,68.044109 556.277301,73.3576047 C672.025899,78.2652488 885.080912,90.9839927 1140.12728,72.0284098 C1237.25855,64.8094087 1309.04052,61.9672384 1360.69347,61.2151991 C1444.67032,59.9925411 1475.44225,64.2945053 1475.44225,64.2945053" id="Line-Copy-14"></path>
                    <path d="M0.767598344,69.7924528 C0.767598344,69.7924528 -6.20489579,65.9585975 53.2593783,63.7209976 C72.61679,62.9925914 135.967051,57.4683127 160.272437,56.8456734 C179.858831,56.3439221 201.11353,62.2050373 223.52329,61.8707191 C315.968336,60.491585 430.956544,60.9120336 556.277301,66.2255292 C672.025899,71.1331733 885.080912,83.8519173 1140.12728,64.8963344 C1237.25855,57.6773333 1309.04052,54.8351629 1360.69347,54.0831237 C1444.67032,52.8604656 1475.44225,57.1624298 1475.44225,57.1624298" id="Line-Copy-15"></path>
                    <path d="M0.767598344,63.6792453 C0.767598344,63.6792453 -6.20489579,59.84539 53.2593783,57.60779 C72.61679,56.8793839 135.967051,51.3551052 160.272437,50.7324658 C179.858831,50.2307145 201.11353,56.0918298 223.52329,55.7575115 C315.968336,54.3783775 430.956544,54.798826 556.277301,60.1123217 C672.025899,65.0199658 885.080912,77.7387097 1140.12728,58.7831268 C1237.25855,51.5641257 1309.04052,48.7219553 1360.69347,47.9699161 C1444.67032,46.7472581 1475.44225,51.0492223 1475.44225,51.0492223" id="Line-Copy-16"></path>
                    <path d="M0.767598344,54.509434 C0.767598344,54.509434 -6.20489579,50.6755787 53.2593783,48.4379787 C72.61679,47.7095726 135.967051,42.1852938 160.272437,41.5626545 C179.858831,41.0609032 201.11353,46.9220184 223.52329,46.5877002 C315.968336,45.2085661 430.956544,45.6290147 556.277301,50.9425104 C672.025899,55.8501544 885.080912,68.5688984 1140.12728,49.6133155 C1237.25855,42.3943144 1309.04052,39.552144 1360.69347,38.8001048 C1444.67032,37.5774468 1475.44225,41.8794109 1475.44225,41.8794109" id="Line-Copy-17"></path>
                    <path d="M0.767598344,45.3396226 C0.767598344,45.3396226 -6.20489579,41.5057673 53.2593783,39.2681674 C72.61679,38.5397612 135.967051,33.0154825 160.272437,32.3928432 C179.858831,31.8910919 201.11353,37.7522071 223.52329,37.4178889 C315.968336,36.0387548 430.956544,36.4592034 556.277301,41.772699 C672.025899,46.6803431 885.080912,59.3990871 1140.12728,40.4435042 C1237.25855,33.2245031 1309.04052,30.3823327 1360.69347,29.6302935 C1444.67032,28.4076354 1475.44225,32.7095996 1475.44225,32.7095996" id="Line-Copy-18"></path>
                    <path d="M0.767598344,37.1886792 C0.767598344,37.1886792 -6.20489579,33.3548239 53.2593783,31.117224 C72.61679,30.3888178 135.967051,24.8645391 160.272437,24.2418998 C179.858831,23.7401485 201.11353,29.6012637 223.52329,29.2669455 C315.968336,27.8878114 430.956544,28.30826 556.277301,33.6217556 C672.025899,38.5293997 885.080912,51.2481437 1140.12728,32.2925608 C1237.25855,25.0735597 1309.04052,22.2313893 1360.69347,21.4793501 C1444.67032,20.256692 1475.44225,24.5586562 1475.44225,24.5586562" id="Line-Copy-19"></path>
                    <path d="M0.767598344,30.0566038 C0.767598344,30.0566038 -6.20489579,26.2227485 53.2593783,23.9851485 C72.61679,23.2567424 135.967051,17.7324636 160.272437,17.1098243 C179.858831,16.608073 201.11353,22.4691883 223.52329,22.13487 C315.968336,20.755736 430.956544,21.1761845 556.277301,26.4896802 C672.025899,31.3973242 885.080912,44.1160682 1140.12728,25.1604853 C1237.25855,17.9414842 1309.04052,15.0993138 1360.69347,14.3472746 C1444.67032,13.1246166 1475.44225,17.4265807 1475.44225,17.4265807" id="Line-Copy-20"></path>
                    <path d="M0.767598344,22.9245283 C0.767598344,22.9245283 -6.20489579,19.090673 53.2593783,16.8530731 C72.61679,16.1246669 135.967051,10.6003882 160.272437,9.97774884 C179.858831,9.47599754 201.11353,15.3371128 223.52329,15.0027946 C315.968336,13.6236605 430.956544,14.044109 556.277301,19.3576047 C672.025899,24.2652488 885.080912,36.9839927 1140.12728,18.0284098 C1237.25855,10.8094087 1309.04052,7.96723836 1360.69347,7.21519915 C1444.67032,5.9925411 1475.44225,10.2945053 1475.44225,10.2945053" id="Line-Copy-21"></path>
                    <path d="M0.767598344,16.8113208 C0.767598344,16.8113208 -6.20489579,12.9774655 53.2593783,10.7398655 C72.61679,10.0114594 135.967051,4.48718063 160.272437,3.86454129 C179.858831,3.36279 201.11353,9.22390524 223.52329,8.88958701 C315.968336,7.51045294 430.956544,7.93090148 556.277301,13.2443972 C672.025899,18.1520412 885.080912,30.8707852 1140.12728,11.9152023 C1237.25855,4.69620119 1309.04052,1.85403081 1360.69347,1.1019916 C1444.67032,-0.12066645 1475.44225,4.18129773 1475.44225,4.18129773" id="Line-Copy-22"></path>
                </g>
                <g id="Line-+-Line-Copy-40-+-Line-Copy-41" transform="translate(1067.000000, 121.000000)" stroke="#C8C8C8" stroke-linecap="square" sketch:type="MSShapeGroup">
                    <path d="M0.729296066,12.9811321 C0.729296066,12.9811321 158.654112,3.41442742 235.171785,1.88136537 C294.263153,0.697446289 406.221378,1.01406591 406.221378,1.01406591" id="Line"></path>
                    <path d="M59.5871015,14.2027363 C59.5871015,14.2027363 161.724506,8.50876704 238.242179,6.975705 C297.333546,5.79178591 409.291772,6.10840553 409.291772,6.10840553" id="Line-Copy-40"></path>
                    <path d="M168.119081,13.3697475 C168.119081,13.3697475 165.415102,12.7622001 241.932775,11.2291381 C301.024143,10.045219 413.897362,12.2216131 413.897362,12.2216131" id="Line-Copy-41"></path>
                </g>
            </g>
        </g>
    </g>
</svg>