<?xml version="1.0" encoding="UTF-8" standalone="no"?>
<svg width="167px" height="167px" viewBox="0 0 167 167" version="1.1" xmlns="http://www.w3.org/2000/svg" xmlns:xlink="http://www.w3.org/1999/xlink" xmlns:sketch="http://www.bohemiancoding.com/sketch/ns">
    <!-- Generator: Sketch 3.3 (11970) - http://www.bohemiancoding.com/sketch -->
    <title>Slice 1</title>
    <desc>Created with Sketch.</desc>
    <defs>
        <circle id="path-1" cx="83.5" cy="83.5" r="83.5"></circle>
    </defs>
    <g id="Page-1" stroke="none" stroke-width="1" fill="none" fill-rule="evenodd" sketch:type="MSPage">
        <g id="Group" sketch:type="MSLayerGroup">
            <mask id="mask-2" sketch:name="Mask" fill="white">
                <use xlink:href="#path-1"></use>
            </mask>
            <use id="Mask" fill-opacity="0" fill="#000000" sketch:type="MSShapeGroup" xlink:href="#path-1"></use>
            <g mask="url(#mask-2)" stroke-linecap="square" stroke="#DAF4FF" sketch:type="MSShapeGroup">
                <g transform="translate(63.000000, 43.000000)">
                    <path d="M7.5,0.5 L7.5,19.5" id="Line"></path>
                    <path d="M14.7272413,7.25 L2.5,14.5" id="Line-Copy"></path>
                    <path d="M13.7272413,7.25 L1.5,14.5" id="Line-Copy-2" transform="translate(7.772759, 11.250000) scale(-1, 1) translate(-7.772759, -11.250000) "></path>
                    <path d="M13.7272413,7.25 L1.5,14.5" id="Line-Copy-3" transform="translate(7.772759, 11.250000) scale(-1, 1) rotate(-331.000000) translate(-7.772759, -11.250000) "></path>
                </g>
            </g>
            <g id="Group-Copy" mask="url(#mask-2)" stroke-linecap="square" stroke="#DAF4FF" sketch:type="MSShapeGroup">
                <g transform="translate(63.000000, 43.000000)">
                    <path d="M7.5,0.5 L7.5,19.5" id="Line"></path>
                    <path d="M14.7272413,7.25 L2.5,14.5" id="Line-Copy"></path>
                    <path d="M13.7272413,7.25 L1.5,14.5" id="Line-Copy-2" transform="translate(7.772759, 11.250000) scale(-1, 1) translate(-7.772759, -11.250000) "></path>
                    <path d="M13.7272413,7.25 L1.5,14.5" id="Line-Copy-3" transform="translate(7.772759, 11.250000) scale(-1, 1) rotate(-331.000000) translate(-7.772759, -11.250000) "></path>
                </g>
            </g>
            <g id="Group-Copy-2" mask="url(#mask-2)" stroke-linecap="square" stroke="#DAF4FF" sketch:type="MSShapeGroup">
                <g transform="translate(47.000000, 72.000000)">
                    <path d="M7.5,0.5 L7.5,19.5" id="Line"></path>
                    <path d="M14.7272413,7.25 L2.5,14.5" id="Line-Copy"></path>
                    <path d="M13.7272413,7.25 L1.5,14.5" id="Line-Copy-2" transform="translate(7.772759, 11.250000) scale(-1, 1) translate(-7.772759, -11.250000) "></path>
                    <path d="M13.7272413,7.25 L1.5,14.5" id="Line-Copy-3" transform="translate(7.772759, 11.250000) scale(-1, 1) rotate(-331.000000) translate(-7.772759, -11.250000) "></path>
                </g>
            </g>
            <g id="Group-Copy-3" mask="url(#mask-2)" stroke-linecap="square" stroke="#DAF4FF" sketch:type="MSShapeGroup">
                <g transform="translate(108.000000, 43.000000)">
                    <path d="M7.5,0.5 L7.5,19.5" id="Line"></path>
                    <path d="M14.7272413,7.25 L2.5,14.5" id="Line-Copy"></path>
                    <path d="M13.7272413,7.25 L1.5,14.5" id="Line-Copy-2" transform="translate(7.772759, 11.250000) scale(-1, 1) translate(-7.772759, -11.250000) "></path>
                    <path d="M13.7272413,7.25 L1.5,14.5" id="Line-Copy-3" transform="translate(7.772759, 11.250000) scale(-1, 1) rotate(-331.000000) translate(-7.772759, -11.250000) "></path>
                </g>
            </g>
            <g id="Group-Copy-6" mask="url(#mask-2)" stroke-linecap="square" stroke="#DAF4FF" sketch:type="MSShapeGroup">
                <g transform="translate(90.000000, 73.000000)">
                    <path d="M7.5,0.5 L7.5,19.5" id="Line"></path>
                    <path d="M14.7272413,7.25 L2.5,14.5" id="Line-Copy"></path>
                    <path d="M13.7272413,7.25 L1.5,14.5" id="Line-Copy-2" transform="translate(7.772759, 11.250000) scale(-1, 1) translate(-7.772759, -11.250000) "></path>
                    <path d="M13.7272413,7.25 L1.5,14.5" id="Line-Copy-3" transform="translate(7.772759, 11.250000) scale(-1, 1) rotate(-331.000000) translate(-7.772759, -11.250000) "></path>
                </g>
            </g>
            <g id="Group-Copy-4" mask="url(#mask-2)" stroke-linecap="square" stroke="#DAF4FF" sketch:type="MSShapeGroup">
                <g transform="translate(78.000000, 101.000000)">
                    <path d="M7.5,0.5 L7.5,19.5" id="Line"></path>
                    <path d="M14.7272413,7.25 L2.5,14.5" id="Line-Copy"></path>
                    <path d="M13.7272413,7.25 L1.5,14.5" id="Line-Copy-2" transform="translate(7.772759, 11.250000) scale(-1, 1) translate(-7.772759, -11.250000) "></path>
                    <path d="M13.7272413,7.25 L1.5,14.5" id="Line-Copy-3" transform="translate(7.772759, 11.250000) scale(-1, 1) rotate(-331.000000) translate(-7.772759, -11.250000) "></path>
                </g>
            </g>
            <g id="Group-Copy-5" mask="url(#mask-2)" stroke-linecap="square" stroke="#DAF4FF" sketch:type="MSShapeGroup">
                <g transform="translate(78.000000, 101.000000)">
                    <path d="M7.5,0.5 L7.5,19.5" id="Line"></path>
                    <path d="M14.7272413,7.25 L2.5,14.5" id="Line-Copy"></path>
                    <path d="M13.7272413,7.25 L1.5,14.5" id="Line-Copy-2" transform="translate(7.772759, 11.250000) scale(-1, 1) translate(-7.772759, -11.250000) "></path>
                    <path d="M13.7272413,7.25 L1.5,14.5" id="Line-Copy-3" transform="translate(7.772759, 11.250000) scale(-1, 1) rotate(-331.000000) translate(-7.772759, -11.250000) "></path>
                </g>
            </g>
        </g>
    </g>
</svg>